<svg xmlns="http://www.w3.org/2000/svg" viewBox="0 0 64 64">
  <defs>
    <linearGradient id="g" x1="0" y1="0" x2="1" y2="1">
      <stop offset="0" stop-color="#FFD91A"/>
      <stop offset="1" stop-color="#FFB800"/>
    </linearGradient>
    <linearGradient id="w" x1="0" y1="0" x2="1" y2="1">
      <stop offset="0" stop-color="#DFFF88"/>
      <stop offset="1" stop-color="#8AD63E"/>
    </linearGradient>
  </defs>
  <rect width="64" height="64" rx="15" fill="#071018"/>
  <ellipse cx="23" cy="20" rx="10" ry="15" fill="url(#w)" stroke="#fff" stroke-width="2" transform="rotate(-32 23 20)"/>
  <ellipse cx="42" cy="20" rx="10" ry="15" fill="url(#w)" stroke="#fff" stroke-width="2" transform="rotate(32 42 20)"/>
  <ellipse cx="32" cy="38" rx="19" ry="17" fill="url(#g)" stroke="#fff" stroke-width="2.4"/>
  <path d="M18 34h28M17 42h30" stroke="#111" stroke-width="7" stroke-linecap="round"/>
  <circle cx="25" cy="31" r="2.3" fill="#111"/>
  <circle cx="39" cy="31" r="2.3" fill="#111"/>
  <path d="M26 36c3 3 9 3 12 0" fill="none" stroke="#111" stroke-width="2.4" stroke-linecap="round"/>
  <path d="M24 20c-3-7-7-8-10-7M40 20c3-7 7-8 10-7" fill="none" stroke="#fff" stroke-width="2.4" stroke-linecap="round"/>
  <circle cx="13" cy="12" r="2.5" fill="#FFD91A" stroke="#fff" stroke-width="1.4"/>
  <circle cx="51" cy="12" r="2.5" fill="#FFD91A" stroke="#fff" stroke-width="1.4"/>
</svg>
